<?xml version="1.0" standalone="no"?>
<!DOCTYPE svg PUBLIC "-//W3C//DTD SVG 20010904//EN"
 "http://www.w3.org/TR/2001/REC-SVG-20010904/DTD/svg10.dtd">
<svg version="1.0" xmlns="http://www.w3.org/2000/svg"
 width="256.000000pt" height="256.000000pt" viewBox="0 0 256.000000 256.000000"
 preserveAspectRatio="xMidYMid meet">

<g transform="translate(0.000000,256.000000) scale(0.100000,-0.100000)"
fill="#000000" stroke="none">
<path d="M250 2399 c-53 -21 -100 -84 -100 -134 0 -26 -3 -29 -54 -40 -16 -3
-44 -21 -63 -40 -32 -32 -33 -34 -33 -122 0 -88 1 -90 33 -121 55 -54 126 -66
191 -32 l39 19 143 -136 c79 -74 144 -140 144 -145 0 -5 -64 -8 -152 -7 -84 1
-160 -2 -170 -6 -23 -9 -40 -57 -33 -88 12 -47 27 -52 198 -57 l160 -5 13 -60
c29 -141 105 -276 220 -391 l66 -66 -23 -23 c-13 -12 -95 -88 -181 -168 l-157
-145 -38 19 c-125 64 -271 -43 -248 -183 11 -64 89 -138 145 -138 15 0 20 -6
20 -27 1 -74 88 -153 169 -153 119 0 209 137 157 239 -15 27 -14 29 49 91 44
43 66 59 69 49 2 -8 12 -39 21 -69 57 -188 210 -290 437 -290 107 0 175 13
254 51 102 48 188 160 210 273 3 20 10 36 14 34 5 -2 33 -27 64 -56 l55 -52
-15 -35 c-29 -71 -4 -162 57 -206 46 -33 153 -35 195 -3 41 30 66 68 73 110 5
34 10 39 40 45 126 26 174 199 80 286 -57 52 -155 66 -205 28 -11 -8 -22 -15
-26 -15 -8 0 -105 90 -281 258 l-77 75 72 71 c119 117 202 263 228 402 l12 64
163 0 164 0 20 26 c25 32 27 61 5 92 -15 21 -21 22 -179 22 -115 0 -166 4
-171 12 -7 11 11 29 203 204 l72 65 32 -17 c38 -19 116 -22 150 -4 13 7 36 24
52 38 26 24 27 30 27 117 0 89 -1 92 -30 120 -17 16 -50 36 -73 45 -37 14 -42
20 -50 57 -5 26 -21 54 -43 76 -128 133 -342 -2 -280 -177 l18 -49 -89 -83
c-48 -46 -92 -83 -98 -83 -5 0 -32 27 -58 60 -65 81 -144 141 -252 194 -125
60 -219 79 -359 72 -61 -3 -138 -13 -171 -22 -139 -38 -277 -128 -368 -240
-26 -33 -51 -61 -55 -63 -5 -1 -50 37 -101 85 l-93 88 16 37 c48 114 -33 238
-154 237 -25 0 -56 -5 -70 -10z m130 -42 c66 -33 89 -127 46 -188 l-24 -34
115 -110 115 -110 -28 -59 c-15 -32 -32 -79 -38 -103 l-11 -44 -115 107 c-63
59 -129 120 -147 136 l-31 30 -29 -21 c-63 -47 -154 -32 -195 33 -28 45 -20
117 18 157 30 31 91 53 118 43 13 -5 16 2 16 46 0 47 4 56 39 91 33 34 45 39
82 39 24 0 55 -6 69 -13z m1936 -12 c37 -24 56 -60 56 -110 0 -43 1 -45 30
-45 16 0 46 -8 65 -17 108 -51 90 -209 -28 -244 -35 -11 -60 -4 -141 39 -4 2
-67 -53 -141 -122 -74 -69 -137 -126 -140 -126 -3 0 -9 15 -12 33 -4 17 -21
63 -38 101 l-31 69 35 30 c19 17 69 64 113 104 l79 74 -23 24 c-34 36 -38 101
-8 145 44 66 123 85 184 45z m-805 -132 c148 -51 270 -148 356 -280 18 -29 33
-57 33 -63 0 -7 -193 -10 -615 -10 -518 0 -615 2 -615 14 0 27 81 134 149 199
80 75 199 139 301 162 43 10 105 14 185 11 102 -2 133 -8 206 -33z m833 -626
c8 -12 8 -22 0 -35 -11 -16 -72 -17 -1055 -17 l-1044 0 -3 23 c-8 55 -66 52
1056 50 973 -3 1035 -4 1046 -21z m-374 -121 c0 -46 -63 -198 -112 -272 -129
-193 -328 -294 -578 -294 -326 0 -563 174 -659 484 -37 119 -121 106 664 106
l685 0 0 -24z m-975 -561 c59 -24 60 -25 58 -62 -4 -56 -12 -83 -26 -83 -15 0
-106 43 -131 63 -19 14 -19 16 -2 61 10 25 23 46 29 46 7 0 39 -11 72 -25z
m664 -31 c11 -31 21 -57 21 -59 0 -6 -148 -65 -163 -65 -10 0 -17 19 -23 63
l-9 62 70 26 c39 15 73 27 76 28 3 0 16 -24 28 -55z m-810 10 c-18 -48 -39
-172 -39 -232 l0 -56 -92 -87 c-92 -86 -93 -87 -74 -107 26 -30 32 -101 12
-141 -36 -68 -124 -91 -187 -48 -42 28 -59 60 -59 115 0 42 0 42 -37 42 -50 0
-101 32 -119 75 -18 45 -18 69 3 112 21 44 67 73 116 73 37 0 97 -26 97 -42 0
-24 43 9 205 161 99 93 181 167 183 166 1 -1 -2 -15 -9 -31z m1099 -201 c108
-102 121 -111 133 -96 17 20 70 43 100 43 37 0 88 -31 110 -67 29 -47 22 -113
-17 -154 -30 -31 -91 -53 -118 -43 -13 5 -16 -2 -16 -41 0 -84 -50 -135 -133
-135 -101 0 -160 111 -106 200 l22 35 -85 80 -85 80 -8 80 c-6 73 -32 190 -51
240 -8 21 49 -29 254 -222z m-725 171 l48 -6 -3 -67 -3 -66 -55 3 c-30 2 -72
7 -94 13 l-38 10 7 57 c4 31 9 61 12 65 3 5 21 6 42 3 20 -3 58 -8 84 -12z
m232 -26 c3 -24 8 -55 11 -69 6 -29 3 -30 -113 -45 l-53 -7 0 71 0 71 48 6
c26 3 54 8 62 9 34 8 39 4 45 -36z m-497 -79 l74 -34 -6 -54 c-4 -30 -9 -57
-11 -60 -6 -6 -49 13 -112 52 -52 31 -53 31 -47 71 7 54 12 68 22 64 4 -2 40
-20 80 -39z m736 5 c3 -9 6 -33 6 -54 0 -37 -1 -38 -82 -79 -93 -46 -91 -47
-100 40 l-5 47 76 30 c91 36 97 37 105 16z m-489 -73 l60 -6 3 -67 3 -68 -38
1 c-21 0 -69 8 -108 17 l-70 17 3 35 c1 19 5 48 8 63 6 27 8 28 42 22 21 -4
64 -10 97 -14z m278 -40 c5 -29 7 -58 4 -65 -5 -12 -110 -36 -161 -36 -26 0
-26 1 -26 70 l0 70 38 1 c20 0 55 4 77 8 22 5 45 8 50 6 6 -1 14 -25 18 -54z
m-533 -59 c124 -61 193 -77 335 -76 141 0 220 17 344 75 l84 39 -6 -63 c-18
-196 -143 -321 -345 -348 -61 -8 -104 -8 -157 0 -188 28 -284 105 -336 272
-19 60 -26 154 -11 147 4 -2 45 -23 92 -46z"/>
<path d="M861 2006 c-55 -68 -63 -96 -31 -96 11 0 20 4 20 8 0 4 23 36 50 70
28 35 48 67 45 72 -13 22 -36 7 -84 -54z"/>
<path d="M1663 2043 c-20 -7 -16 -19 21 -67 18 -24 36 -56 40 -70 4 -17 13
-26 26 -26 28 0 25 26 -9 85 -33 57 -60 84 -78 78z"/>
<path d="M972 1993 c-41 -59 -53 -90 -38 -102 11 -9 22 1 55 50 22 33 38 65
35 70 -10 17 -33 9 -52 -18z"/>
<path d="M1554 1990 c-8 -8 -7 -23 5 -55 17 -47 38 -65 47 -40 14 36 -31 116
-52 95z"/>
<path d="M1071 1968 c-22 -23 -27 -53 -12 -63 11 -6 51 41 51 61 0 24 -19 25
-39 2z"/>
<path d="M917 1429 c-43 -23 -83 -79 -92 -130 -15 -83 45 -182 132 -215 39
-15 52 -16 91 -5 63 16 105 51 132 106 75 155 -109 325 -263 244z"/>
<path d="M1485 1431 c-83 -37 -124 -120 -105 -207 21 -93 87 -145 184 -146
210 -2 256 292 57 360 -48 17 -89 15 -136 -7z"/>
<path d="M1231 1054 c-23 -29 -16 -55 19 -74 44 -23 110 4 110 45 0 27 -38 55
-74 55 -25 0 -40 -7 -55 -26z"/>
</g>
</svg>
